HIERARCHY
ROOT Hips
{
	OFFSET 1.226223 81.554100 30.763233
	CHANNELS 6 Xposition Yposition Zposition Zrotation Yrotation Xrotation 
	JOINT Spine
	{
		OFFSET -0.000000 8.814246 -2.080107
		CHANNELS 3 Zrotation Yrotation Xrotation
		JOINT Spine1
		{
			OFFSET -0.000000 8.844141 0.000000
			CHANNELS 3 Zrotation Yrotation Xrotation
			JOINT Spine2
			{
				OFFSET 0.000000 11.682268 0.000000
				CHANNELS 3 Zrotation Yrotation Xrotation
				JOINT Spine3
				{
					OFFSET 0.000000 11.746700 0.000000
					CHANNELS 3 Zrotation Yrotation Xrotation
					JOINT Neck
					{
						OFFSET -0.000000 17.658264 -0.000000
						CHANNELS 3 Zrotation Yrotation Xrotation
						JOINT Neck1
						{
							OFFSET 0.000000 5.101515 0.000000
							CHANNELS 3 Zrotation Yrotation Xrotation
							JOINT Head
							{
								OFFSET 0.000000 5.101515 0.000000
								CHANNELS 3 Zrotation Yrotation Xrotation
								JOINT HeadEnd
								{
									OFFSET 0.000000 11.655085 -0.000000
									CHANNELS 3 Zrotation Yrotation Xrotation
									End Site
									{
										OFFSET 0.000000 0.000000 0.000000
									}
								}
							}
						}
					}
					JOINT RightShoulder
					{
						OFFSET -2.625389 11.175210 -0.000000
						CHANNELS 3 Zrotation Yrotation Xrotation
						JOINT RightArm
						{
							OFFSET -0.000000 10.434715 -0.000000
							CHANNELS 3 Zrotation Yrotation Xrotation
							JOINT RightForeArm
							{
								OFFSET 0.000000 29.628420 0.000000
								CHANNELS 3 Zrotation Yrotation Xrotation
								JOINT RightHand
								{
									OFFSET -0.000000 22.857611 -0.000000
									CHANNELS 3 Zrotation Yrotation Xrotation
									JOINT RightHandThumb1
									{
										OFFSET -2.867323 3.959563 2.944291
										CHANNELS 3 Zrotation Yrotation Xrotation
										JOINT RightHandThumb2
										{
											OFFSET 0.000000 3.350399 0.000000
											CHANNELS 3 Zrotation Yrotation Xrotation
											JOINT RightHandThumb3
											{
												OFFSET 0.000000 3.756509 -0.000000
												CHANNELS 3 Zrotation Yrotation Xrotation
												JOINT RightHandThumb4
												{
													OFFSET 0.000000 3.147345 0.000000
													CHANNELS 3 Zrotation Yrotation Xrotation
													End Site
													{
														OFFSET 0.000000 0.000000 0.000000
													}
												}
											}
										}
									}
									JOINT RightHandIndex1
									{
										OFFSET -0.086752 10.030893 2.345280
										CHANNELS 3 Zrotation Yrotation Xrotation
										JOINT RightHandIndex2
										{
											OFFSET 0.000000 4.061090 0.000000
											CHANNELS 3 Zrotation Yrotation Xrotation
											JOINT RightHandIndex3
											{
												OFFSET 0.000000 3.248873 0.000000
												CHANNELS 3 Zrotation Yrotation Xrotation
												JOINT RightHandIndex4
												{
													OFFSET 0.000000 2.639709 0.000000
													CHANNELS 3 Zrotation Yrotation Xrotation
													End Site
													{
														OFFSET 0.000000 0.000000 0.000000
													}
												}
											}
										}
									}
									JOINT RightHandMiddle1
									{
										OFFSET 0.104102 9.502952 0.006768
										CHANNELS 3 Zrotation Yrotation Xrotation
										JOINT RightHandMiddle2
										{
											OFFSET 0.000000 4.568727 0.000000
											CHANNELS 3 Zrotation Yrotation Xrotation
											JOINT RightHandMiddle3
											{
												OFFSET -0.000000 3.654981 -0.000000
												CHANNELS 3 Zrotation Yrotation Xrotation
												JOINT RightHandMiddle4
												{
													OFFSET 0.000000 2.741236 0.000000
													CHANNELS 3 Zrotation Yrotation Xrotation
													End Site
													{
														OFFSET 0.000000 0.000000 0.000000
													}
												}
											}
										}
									}
									JOINT RightHandRing1
									{
										OFFSET 0.086752 8.921708 -2.267442
										CHANNELS 3 Zrotation Yrotation Xrotation
										JOINT RightHandRing2
										{
											OFFSET -0.000000 4.061090 0.000000
											CHANNELS 3 Zrotation Yrotation Xrotation
											JOINT RightHandRing3
											{
												OFFSET -0.000000 3.654981 -0.000000
												CHANNELS 3 Zrotation Yrotation Xrotation
												JOINT RightHandRing4
												{
													OFFSET 0.000000 2.741236 0.000000
													CHANNELS 3 Zrotation Yrotation Xrotation
													End Site
													{
														OFFSET 0.000000 0.000000 0.000000
													}
												}
											}
										}
									}
									JOINT RightHandPinky1
									{
										OFFSET -0.173504 7.976997 -4.467199
										CHANNELS 3 Zrotation Yrotation Xrotation
										JOINT RightHandPinky2
										{
											OFFSET 0.000000 3.350399 0.000000
											CHANNELS 3 Zrotation Yrotation Xrotation
											JOINT RightHandPinky3
											{
												OFFSET 0.000000 2.842763 0.000000
												CHANNELS 3 Zrotation Yrotation Xrotation
												JOINT RightHandPinky4
												{
													OFFSET 0.000000 2.639709 0.000000
													CHANNELS 3 Zrotation Yrotation Xrotation
													End Site
													{
														OFFSET 0.000000 0.000000 0.000000
													}
												}
											}
										}
									}
									JOINT RightForeArmEnd
									{
										OFFSET 0.000000 0.000000 0.000000
										CHANNELS 3 Zrotation Yrotation Xrotation
										End Site
										{
											OFFSET 0.000000 0.000000 0.000000
										}
									}
								}
								JOINT RightArmEnd
								{
									OFFSET 0.000000 0.000000 0.000000
									CHANNELS 3 Zrotation Yrotation Xrotation
									End Site
									{
										OFFSET 0.000000 0.000000 0.000000
									}
								}
							}
						}
					}
					JOINT LeftShoulder
					{
						OFFSET 2.625389 11.175210 -0.000000
						CHANNELS 3 Zrotation Yrotation Xrotation
						JOINT LeftArm
						{
							OFFSET 0.000000 10.813635 0.000000
							CHANNELS 3 Zrotation Yrotation Xrotation
							JOINT LeftForeArm
							{
								OFFSET 0.000000 28.724781 -0.000000
								CHANNELS 3 Zrotation Yrotation Xrotation
								JOINT LeftHand
								{
									OFFSET 0.644384 25.716167 -0.328871
									CHANNELS 3 Zrotation Yrotation Xrotation
									JOINT LeftHandThumb1
									{
										OFFSET 2.867323 3.959563 2.944291
										CHANNELS 3 Zrotation Yrotation Xrotation
										JOINT LeftHandThumb2
										{
											OFFSET -0.000000 3.350399 -0.000000
											CHANNELS 3 Zrotation Yrotation Xrotation
											JOINT LeftHandThumb3
											{
												OFFSET 0.000000 3.756509 -0.000000
												CHANNELS 3 Zrotation Yrotation Xrotation
												JOINT LeftHandThumb4
												{
													OFFSET 0.000000 3.100000 -0.000000
													CHANNELS 3 Zrotation Yrotation Xrotation
													End Site
													{
														OFFSET 0.000000 0.000000 0.000000
													}
												}
											}
										}
									}
									JOINT LeftHandIndex1
									{
										OFFSET 0.086752 10.030893 2.345280
										CHANNELS 3 Zrotation Yrotation Xrotation
										JOINT LeftHandIndex2
										{
											OFFSET -0.000000 4.061090 0.000000
											CHANNELS 3 Zrotation Yrotation Xrotation
											JOINT LeftHandIndex3
											{
												OFFSET -0.000000 3.248873 0.000000
												CHANNELS 3 Zrotation Yrotation Xrotation
												JOINT LeftHandIndex4
												{
													OFFSET 0.000000 2.639709 -0.000000
													CHANNELS 3 Zrotation Yrotation Xrotation
													End Site
													{
														OFFSET 0.000000 0.000000 0.000000
													}
												}
											}
										}
									}
									JOINT LeftHandMiddle1
									{
										OFFSET -0.104102 9.502952 0.006768
										CHANNELS 3 Zrotation Yrotation Xrotation
										JOINT LeftHandMiddle2
										{
											OFFSET -0.000000 4.568727 0.000000
											CHANNELS 3 Zrotation Yrotation Xrotation
											JOINT LeftHandMiddle3
											{
												OFFSET 0.000000 3.654981 -0.000000
												CHANNELS 3 Zrotation Yrotation Xrotation
												JOINT LeftHandMiddle4
												{
													OFFSET -0.000000 2.741236 0.000000
													CHANNELS 3 Zrotation Yrotation Xrotation
													End Site
													{
														OFFSET 0.000000 0.000000 0.000000
													}
												}
											}
										}
									}
									JOINT LeftHandRing1
									{
										OFFSET -0.086752 8.921708 -2.267442
										CHANNELS 3 Zrotation Yrotation Xrotation
										JOINT LeftHandRing2
										{
											OFFSET -0.000000 4.061090 0.000000
											CHANNELS 3 Zrotation Yrotation Xrotation
											JOINT LeftHandRing3
											{
												OFFSET 0.000000 3.654981 -0.000000
												CHANNELS 3 Zrotation Yrotation Xrotation
												JOINT LeftHandRing4
												{
													OFFSET 0.000000 2.741236 -0.000000
													CHANNELS 3 Zrotation Yrotation Xrotation
													End Site
													{
														OFFSET 0.000000 0.000000 0.000000
													}
												}
											}
										}
									}
									JOINT LeftHandPinky1
									{
										OFFSET 0.173504 7.976997 -4.467199
										CHANNELS 3 Zrotation Yrotation Xrotation
										JOINT LeftHandPinky2
										{
											OFFSET 0.000000 3.350399 0.000000
											CHANNELS 3 Zrotation Yrotation Xrotation
											JOINT LeftHandPinky3
											{
												OFFSET -0.000000 2.842763 0.000000
												CHANNELS 3 Zrotation Yrotation Xrotation
												JOINT LeftHandPinky4
												{
													OFFSET 0.000000 2.639709 -0.000000
													CHANNELS 3 Zrotation Yrotation Xrotation
													End Site
													{
														OFFSET 0.000000 0.000000 0.000000
													}
												}
											}
										}
									}
									JOINT LeftForeArmEnd
									{
										OFFSET 0.000000 0.000000 0.000000
										CHANNELS 3 Zrotation Yrotation Xrotation
										End Site
										{
											OFFSET 0.000000 0.000000 0.000000
										}
									}
								}
								JOINT LeftArmEnd
								{
									OFFSET 0.000000 0.000000 0.000000
									CHANNELS 3 Zrotation Yrotation Xrotation
									End Site
									{
										OFFSET 0.000000 0.000000 0.000000
									}
								}
							}
						}
					}
				}
			}
		}
	}
	JOINT RightUpLeg
	{
		OFFSET -11.289943 0.000000 -0.000000
		CHANNELS 3 Zrotation Yrotation Xrotation
		JOINT RightLeg
		{
			OFFSET 0.000000 -38.200325 0.000000
			CHANNELS 3 Zrotation Yrotation Xrotation
			JOINT RightFoot
			{
				OFFSET -0.000000 -39.900856 0.000000
				CHANNELS 3 Zrotation Yrotation Xrotation
				JOINT RightToeBase
				{
					OFFSET -0.000000 -0.000000 15.261641
					CHANNELS 3 Zrotation Yrotation Xrotation
					JOINT RightToeBaseEnd
					{
						OFFSET -0.000000 0.000000 7.370709
						CHANNELS 3 Zrotation Yrotation Xrotation
						End Site
						{
							OFFSET 0.000000 0.000000 0.000000
						}
					}
				}
				JOINT RightLegEnd
				{
					OFFSET 0.000000 0.000000 0.000000
					CHANNELS 3 Zrotation Yrotation Xrotation
					End Site
					{
						OFFSET 0.000000 0.000000 0.000000
					}
				}
			}
			JOINT RightUpLegEnd
			{
				OFFSET 0.000000 0.000000 0.000000
				CHANNELS 3 Zrotation Yrotation Xrotation
				End Site
				{
					OFFSET 0.000000 0.000000 0.000000
				}
			}
		}
	}
	JOINT LeftUpLeg
	{
		OFFSET 11.315661 0.000000 -0.000000
		CHANNELS 3 Zrotation Yrotation Xrotation
		JOINT LeftLeg
		{
			OFFSET -0.000000 -38.200325 0.000000
			CHANNELS 3 Zrotation Yrotation Xrotation
			JOINT LeftFoot
			{
				OFFSET 0.000000 -39.900856 0.000000
				CHANNELS 3 Zrotation Yrotation Xrotation
				JOINT LeftToeBase
				{
					OFFSET -0.000000 -0.000000 15.261641
					CHANNELS 3 Zrotation Yrotation Xrotation
					JOINT LeftToeBaseEnd
					{
						OFFSET 0.000000 -0.000000 7.539996
						CHANNELS 3 Zrotation Yrotation Xrotation
						End Site
						{
							OFFSET 0.000000 0.000000 0.000000
						}
					}
				}
				JOINT LeftLegEnd
				{
					OFFSET 0.000000 0.000000 0.000000
					CHANNELS 3 Zrotation Yrotation Xrotation
					End Site
					{
						OFFSET 0.000000 0.000000 0.000000
					}
				}
			}
			JOINT LeftUpLegEnd
			{
				OFFSET 0.000000 0.000000 0.000000
				CHANNELS 3 Zrotation Yrotation Xrotation
				End Site
				{
					OFFSET 0.000000 0.000000 0.000000
				}
			}
		}
	}
}
MOTION
Frames: 5
Frame Time: 0.016667
1.226223 81.554100 30.763233 -1.878597 19.398018 4.844788 3.213279 -0.209548 11.035497 1.898249 -0.602636 15.572858 1.158823 0.591745 14.890793 -0.114996 0.595961 5.861285 7.172895 -1.034916 32.201458 -2.255975 -0.410649 4.903088 0.736306 3.513209 -20.075548 -0.000000 -0.000000 -0.000000 87.298073 0.321066 6.826510 61.187874 -46.625275 0.210527 -1.818598 13.983092 68.340080 -19.194683 -0.533565 -7.507042 9.142713 -1.696615 40.542114 -0.000000 -0.000000 -22.320000 0.000000 -0.000000 -15.500000 -0.000000 -0.000000 0.000000 8.500887 -0.000000 0.219664 5.950621 0.000000 -0.000000 5.950621 -0.000000 0.000000 0.000000 -0.000000 0.000000 6.928464 0.000000 -5.097507 4.849925 0.000000 0.000000 4.849925 0.000000 -0.000000 0.000000 0.000000 0.000000 2.922936 -0.000000 -11.653633 2.046055 -0.000000 -0.000000 2.046055 0.000000 -0.000000 0.000000 -0.000000 0.000000 -2.272046 -0.000000 -18.467634 0.000000 -0.000000 0.000000 0.000000 0.000000 0.000000 -0.000000 0.000000 0.000000 -0.000000 0.000000 0.000000 -0.000000 0.000000 -0.000000 -84.723541 -0.557402 5.269837 -47.505352 54.371342 13.999839 -1.114697 -7.961878 73.208893 22.445862 5.239213 -7.727386 -5.868932 1.255559 42.071888 -0.000000 0.000000 -14.400000 0.000000 -0.000000 -10.000000 -0.000000 0.000000 -0.000000 1.558787 -0.000000 -4.379108 0.000000 0.000000 -0.000000 0.000000 0.000000 0.000000 -0.000000 -0.000000 -0.000000 1.733401 -0.000000 -7.612034 0.000000 -0.000000 0.000000 0.000000 0.000000 0.000000 0.000000 -0.000000 0.000000 2.628423 0.000000 -10.549255 0.000000 -0.000000 -0.000000 0.000000 0.000000 0.000000 0.000000 -0.000000 0.000000 4.019787 0.000000 -13.069848 -0.000000 0.000000 0.000000 0.000000 -0.000000 0.000000 0.000000 -0.000000 0.000000 0.000000 0.000000 -0.000000 -0.000000 -0.000000 -0.000000 -2.254049 -11.933106 -30.032009 0.040274 0.034612 49.324226 2.724793 -11.336990 7.932851 1.725838 0.293873 -30.639273 0.000000 -0.000000 0.000000 -0.000000 0.000000 -0.000000 -0.000000 0.000000 0.000000 8.433195 10.258081 -31.114388 0.482174 0.393783 50.444183 -3.306155 3.563410 7.252242 -0.551936 -0.816982 -31.496189 -0.000000 -0.000000 0.000000 -0.000000 0.000000 0.000000 -0.000000 0.000000 0.000000 
1.254621 81.424156 30.561905 -1.721611 19.455183 5.329299 3.203338 -0.187082 11.048501 1.882449 -0.600251 15.646029 1.127581 0.597840 14.887224 -0.148835 0.597605 5.880430 7.205341 -1.088420 32.211441 -2.215242 -0.413208 4.960021 0.781154 3.540863 -20.093195 -0.000000 0.000000 -0.000000 87.253456 0.319918 6.691804 61.513779 -46.397053 0.101657 -1.848246 13.935130 68.389465 -19.682081 -0.874936 -7.275266 9.142713 -1.696615 40.542114 -0.000000 -0.000000 -22.320000 -0.000000 -0.000000 -15.500000 -0.000000 0.000000 -0.000000 8.503754 0.000000 0.735811 5.952628 0.000000 -0.000000 5.952628 -0.000000 -0.000000 -0.000000 -0.000000 -0.000000 6.900845 0.000000 -4.668451 4.830592 -0.000000 0.000000 4.830592 -0.000000 -0.000000 -0.000000 -0.000000 -0.000000 2.845109 -0.000000 -11.346362 1.991577 -0.000000 0.000000 1.991577 0.000000 -0.000000 -0.000000 0.000000 -0.000000 -2.365614 0.000000 -18.272434 0.000000 -0.000000 0.000000 -0.000000 -0.000000 0.000000 -0.000000 -0.000000 -0.000000 -0.000000 0.000000 0.000000 0.000000 -0.000000 -0.000000 -84.630318 -0.559653 5.201624 -47.591095 54.397240 13.837032 -1.104214 -7.889851 73.522392 23.054108 5.581798 -7.432983 -5.868932 1.255559 42.071888 -0.000000 0.000000 -14.400000 -0.000000 0.000000 -10.000000 0.000000 0.000000 0.000000 1.256199 -0.000000 -4.513360 0.000000 0.000000 -0.000000 0.000000 0.000000 -0.000000 -0.000000 -0.000000 -0.000000 1.476984 -0.000000 -7.708865 0.000000 0.000000 -0.000000 -0.000000 0.000000 0.000000 0.000000 -0.000000 0.000000 2.464104 -0.000000 -10.601439 0.000000 0.000000 -0.000000 0.000000 0.000000 0.000000 -0.000000 0.000000 0.000000 3.958642 -0.000000 -13.070795 0.000000 0.000000 0.000000 -0.000000 0.000000 0.000000 0.000000 0.000000 0.000000 0.000000 0.000000 0.000000 -0.000000 -0.000000 -0.000000 -2.362825 -12.113646 -30.995411 0.054489 0.045685 50.022038 2.779935 -11.237144 7.962345 1.751316 0.304413 -30.847900 0.000000 -0.000000 0.000000 -0.000000 -0.000000 -0.000000 -0.000000 0.000000 0.000000 8.105710 10.375311 -32.008114 0.482731 0.390557 50.956642 -3.183080 3.488927 7.322385 -0.559216 -0.845995 -31.673037 0.000000 0.000000 0.000000 -0.000000 0.000000 0.000000 -0.000000 -0.000000 0.000000 
1.286021 81.299477 30.369116 -1.554388 19.498606 5.785275 3.184252 -0.171283 11.073826 1.864935 -0.597256 15.717425 1.090112 0.601128 14.873737 -0.179256 0.598035 5.878211 7.202033 -1.132150 32.221954 -2.197419 -0.438009 5.019909 0.810981 3.559559 -20.141867 -0.000000 0.000000 -0.000000 87.182823 0.319982 6.525467 61.909454 -46.140980 0.007001 -1.874136 13.906589 68.376762 -20.140018 -1.155738 -6.993615 9.142713 -1.696615 40.542114 -0.000000 -0.000000 -22.320000 0.000000 -0.000000 -15.500000 0.000000 0.000000 0.000000 8.610278 -0.000000 1.136391 6.027194 -0.000000 -0.000000 6.027194 -0.000000 -0.000000 -0.000000 -0.000000 0.000000 7.001978 0.000000 -4.367902 4.901384 -0.000000 0.000000 4.901384 -0.000000 0.000000 -0.000000 -0.000000 -0.000000 2.953088 0.000000 -11.183882 2.067161 -0.000000 -0.000000 2.067161 0.000000 -0.000000 0.000000 0.000000 0.000000 -2.240372 -0.000000 -18.246529 -0.000000 0.000000 0.000000 0.000000 -0.000000 0.000000 -0.000000 -0.000000 -0.000000 -0.000000 -0.000000 0.000000 -0.000000 0.000000 -0.000000 -84.588829 -0.557860 5.143688 -47.753841 54.356289 13.563675 -1.089962 -7.791117 73.853317 23.596252 6.103449 -7.207764 -5.868932 1.255559 42.071888 -0.000000 0.000000 -14.400000 -0.000000 -0.000000 -10.000000 -0.000000 0.000000 -0.000000 0.982897 -0.000000 -4.675538 -0.000000 0.000000 0.000000 -0.000000 0.000000 0.000000 -0.000000 -0.000000 -0.000000 1.234991 0.000000 -7.830952 -0.000000 0.000000 0.000000 0.000000 0.000000 -0.000000 0.000000 -0.000000 0.000000 2.282670 0.000000 -10.669660 -0.000000 -0.000000 0.000000 -0.000000 0.000000 0.000000 -0.000000 0.000000 0.000000 3.849813 0.000000 -13.076106 0.000000 -0.000000 -0.000000 0.000000 0.000000 0.000000 0.000000 0.000000 0.000000 0.000000 -0.000000 -0.000000 -0.000000 -0.000000 -0.000000 -2.484283 -12.303170 -31.903858 0.066227 0.054229 50.685669 2.821373 -11.118015 7.991507 1.769466 0.315048 -31.043261 0.000000 0.000000 0.000000 -0.000000 0.000000 -0.000000 -0.000000 0.000000 0.000000 7.763073 10.558783 -32.834320 0.486437 0.388507 51.422684 -3.031429 3.355631 7.387513 -0.558990 -0.875071 -31.832382 -0.000000 -0.000000 0.000000 -0.000000 -0.000000 0.000000 -0.000000 0.000000 0.000000 
1.319055 81.178818 30.182610 -1.376412 19.525562 6.229007 3.158624 -0.157351 11.099795 1.834395 -0.591249 15.778605 1.054430 0.602585 14.853497 -0.199853 0.596802 5.850433 7.142608 -1.179989 32.213993 -2.216885 -0.507778 5.076195 0.830049 3.567198 -20.176453 0.000000 0.000000 -0.000000 87.117264 0.318463 6.347217 62.349136 -45.874783 -0.127768 -1.902422 13.885097 68.368462 -20.727341 -1.104930 -6.703914 9.142713 -1.696615 40.542114 -0.000000 0.000000 -22.320000 -0.000000 -0.000000 -15.500000 0.000000 0.000000 0.000000 9.125766 -0.000000 1.451278 6.388036 0.000000 -0.000000 6.388036 -0.000000 0.000000 0.000000 -0.000000 0.000000 7.472501 -0.000000 -4.147536 5.230751 0.000000 -0.000000 5.230751 0.000000 -0.000000 0.000000 0.000000 -0.000000 3.353359 -0.000000 -11.076168 2.347351 -0.000000 0.000000 2.347351 -0.000000 0.000000 -0.000000 0.000000 -0.000000 -1.928532 -0.000000 -18.253147 -0.000000 0.000000 -0.000000 0.000000 0.000000 0.000000 -0.000000 -0.000000 -0.000000 0.000000 -0.000000 0.000000 0.000000 -0.000000 -0.000000 -84.605614 -0.551386 5.093414 -47.901840 54.363632 13.256704 -1.086746 -7.753576 74.185883 24.123718 6.702608 -7.023254 -5.868932 1.255559 42.071888 0.000000 -0.000000 -14.400000 -0.000000 0.000000 -10.000000 0.000000 -0.000000 -0.000000 0.684017 -0.000000 -4.881072 0.000000 0.000000 -0.000000 0.000000 0.000000 0.000000 -0.000000 -0.000000 -0.000000 0.966550 -0.000000 -7.985873 -0.000000 0.000000 0.000000 0.000000 0.000000 0.000000 0.000000 -0.000000 0.000000 2.072549 0.000000 -10.752790 -0.000000 -0.000000 0.000000 0.000000 0.000000 0.000000 0.000000 0.000000 0.000000 3.712301 -0.000000 -13.074358 0.000000 0.000000 -0.000000 0.000000 0.000000 0.000000 0.000000 0.000000 0.000000 0.000000 0.000000 0.000000 -0.000000 -0.000000 -0.000000 -2.616158 -12.489596 -32.778759 0.076097 0.060918 51.320015 2.860978 -10.991433 8.018596 1.781634 0.325444 -31.224131 0.000000 0.000000 0.000000 -0.000000 0.000000 -0.000000 -0.000000 0.000000 0.000000 7.404144 10.778507 -33.612888 0.497259 0.387456 51.847652 -2.865565 3.194715 7.444252 -0.552605 -0.905270 -31.965029 -0.000000 -0.000000 0.000000 -0.000000 -0.000000 0.000000 -0.000000 0.000000 0.000000 
1.353659 81.067871 30.005291 -1.192077 19.538931 6.656135 3.128878 -0.144183 11.120473 1.793990 -0.579131 15.824799 1.017286 0.602995 14.808733 -0.220364 0.592096 5.841921 7.080564 -1.229260 32.185646 -2.219497 -0.585120 5.116986 0.883144 3.587016 -20.207253 -0.000000 0.000000 -0.000000 87.065170 0.316013 6.187004 62.803871 -45.614914 -0.304679 -1.929944 13.863852 68.404861 -21.309967 -1.141451 -6.379152 9.441424 -1.728222 40.406590 -0.000000 -0.000000 -23.040001 -0.000000 0.000000 -16.000000 -0.000000 -0.000000 0.000000 9.565860 -0.000000 1.590967 6.696102 0.000000 -0.000000 6.696102 -0.000000 -0.000000 0.000000 -0.000000 0.000000 7.847296 -0.000000 -4.044238 5.493107 -0.000000 0.000000 5.493107 0.000000 0.000000 -0.000000 -0.000000 -0.000000 3.585354 -0.000000 -10.964575 2.509748 -0.000000 -0.000000 2.509748 0.000000 -0.000000 0.000000 0.000000 0.000000 -1.881730 0.000000 -18.077864 -0.000000 -0.000000 -0.000000 0.000000 -0.000000 0.000000 -0.000000 0.000000 0.000000 0.000000 -0.000000 0.000000 0.000000 -0.000000 -0.000000 -84.597008 -0.551051 5.084142 -48.100842 54.391815 12.911853 -1.088197 -7.765536 74.494537 24.599426 7.331785 -6.861023 -6.165488 1.302824 41.930065 -0.000000 0.000000 -15.120000 0.000000 -0.000000 -10.500000 0.000000 0.000000 0.000000 0.337799 -0.000000 -5.076501 -0.000000 -0.000000 0.000000 0.000000 0.000000 0.000000 -0.000000 -0.000000 -0.000000 0.664816 -0.000000 -8.145870 0.000000 -0.000000 0.000000 -0.000000 0.000000 0.000000 0.000000 0.000000 0.000000 1.857651 0.000000 -10.850829 0.000000 -0.000000 -0.000000 0.000000 0.000000 0.000000 0.000000 -0.000000 0.000000 3.600870 -0.000000 -13.090397 0.000000 0.000000 0.000000 0.000000 0.000000 0.000000 -0.000000 -0.000000 -0.000000 0.000000 -0.000000 -0.000000 -0.000000 -0.000000 -0.000000 -2.755374 -12.664682 -33.602135 0.084217 0.065968 51.902760 2.898173 -10.867186 8.046923 1.789240 0.334734 -31.386478 0.000000 0.000000 0.000000 -0.000000 -0.000000 0.000000 -0.000000 0.000000 0.000000 7.037157 11.010046 -34.329857 0.509749 0.387229 52.214279 -2.695339 3.028224 7.495943 -0.544037 -0.935477 -32.073185 0.000000 0.000000 0.000000 -0.000000 -0.000000 0.000000 -0.000000 -0.000000 0.000000 
